<svg width="60" height="60" viewBox="0 0 60 60" fill="none" xmlns="http://www.w3.org/2000/svg">
<path d="M1 30C1 13.9837 13.9837 1 30 1C46.0163 1 59 13.9837 59 30C59 46.0163 46.0163 59 30 59C13.9837 59 1 46.0163 1 30Z" stroke="#52503B" stroke-width="2"/>
<path d="M46.0607 32.0607C46.6464 31.4749 46.6464 30.5251 46.0607 29.9393L36.5147 20.3934C35.9289 19.8076 34.9792 19.8076 34.3934 20.3934C33.8076 20.9792 33.8076 21.9289 34.3934 22.5147L42.8787 31L34.3934 39.4853C33.8076 40.0711 33.8076 41.0208 34.3934 41.6066C34.9792 42.1924 35.9289 42.1924 36.5147 41.6066L46.0607 32.0607ZM15 32.5H45V29.5H15V32.5Z" fill="#52503B"/>
</svg>
