<svg width="60" height="60" viewBox="0 0 60 60" fill="none" xmlns="http://www.w3.org/2000/svg">
<path d="M1 30C1 13.9837 13.9837 1 30 1C46.0163 1 59 13.9837 59 30C59 46.0163 46.0163 59 30 59C13.9837 59 1 46.0163 1 30Z" stroke="#52503B" stroke-width="2"/>
<path d="M13.9393 29.9393C13.3536 30.5251 13.3536 31.4749 13.9393 32.0607L23.4853 41.6066C24.0711 42.1924 25.0208 42.1924 25.6066 41.6066C26.1924 41.0208 26.1924 40.0711 25.6066 39.4853L17.1213 31L25.6066 22.5147C26.1924 21.9289 26.1924 20.9792 25.6066 20.3934C25.0208 19.8076 24.0711 19.8076 23.4853 20.3934L13.9393 29.9393ZM45 29.5L15 29.5L15 32.5L45 32.5L45 29.5Z" fill="#52503B"/>
</svg>
